<?xml version="1.0" encoding="UTF-8" standalone="no"?>
<!-- Created with Inkscape (http://www.inkscape.org/) -->

<svg
   xmlns:dc="http://purl.org/dc/elements/1.1/"
   xmlns:cc="http://creativecommons.org/ns#"
   xmlns:rdf="http://www.w3.org/1999/02/22-rdf-syntax-ns#"
   xmlns:svg="http://www.w3.org/2000/svg"
   xmlns="http://www.w3.org/2000/svg"
   xmlns:sodipodi="http://sodipodi.sourceforge.net/DTD/sodipodi-0.dtd"
   xmlns:inkscape="http://www.inkscape.org/namespaces/inkscape"
   width="744.09448819"
   height="1052.3622047"
   id="svg2"
   version="1.1"
   inkscape:version="0.48.5 r10040"
   sodipodi:docname="bug_base.svg">
  <defs
     id="defs4" />
  <sodipodi:namedview
     id="base"
     pagecolor="#ffffff"
     bordercolor="#666666"
     borderopacity="1.0"
     inkscape:pageopacity="0.0"
     inkscape:pageshadow="2"
     inkscape:zoom="0.32715965"
     inkscape:cx="807.82313"
     inkscape:cy="402.88539"
     inkscape:document-units="px"
     inkscape:current-layer="layer1"
     showgrid="false"
     inkscape:window-width="1209"
     inkscape:window-height="720"
     inkscape:window-x="2660"
     inkscape:window-y="81"
     inkscape:window-maximized="0" />
  <metadata
     id="metadata7">
    <rdf:RDF>
      <cc:Work
         rdf:about="">
        <dc:format>image/svg+xml</dc:format>
        <dc:type
           rdf:resource="http://purl.org/dc/dcmitype/StillImage" />
        <dc:title></dc:title>
      </cc:Work>
    </rdf:RDF>
  </metadata>
  <g
     inkscape:label="Layer 1"
     inkscape:groupmode="layer"
     id="layer1">
    <g
       id="g4117">
      <g
         id="g4026"
         transform="matrix(-0.94199703,0.33562121,0.33562121,0.94199703,550.09945,-125.80236)">
        <path
           sodipodi:nodetypes="csssc"
           inkscape:connector-curvature="0"
           id="path4028"
           d="m 622.57653,178.38039 c -6.23025,6.7544 -39.72759,7.14788 -52.76493,7.14788 -10.51624,0 -18.98238,-8.46614 -18.98238,-18.98238 0,-10.51623 8.47243,-19.50731 18.98238,-18.98237 l 51.98235,2.59635"
           style="fill:#800000;fill-opacity:1;stroke:#000000;stroke-width:2.62280512;stroke-miterlimit:4;stroke-opacity:1"
           transform="matrix(0.7838346,0.62096966,-0.63109911,0.7757022,0,0)" />
        <path
           sodipodi:nodetypes="ccccccc"
           inkscape:connector-curvature="0"
           id="path4030"
           d="m 355.92204,473.71653 c -8.50067,-6.95445 -23.38376,-1.92834 -23.77013,7.71897 -1.08475,9.24051 13.68355,5.69563 20.01322,11.66481 7.28281,4.7864 18.17945,15.2605 27.56505,16.66077 11.07164,1.70492 8.50159,4.18212 11.10047,-5.42266 -6.18054,-7.40726 -21.22335,-18.81669 -28.50013,-25.43483 -2.14436,-1.7209 -4.23388,-3.49545 -6.40848,-5.18706 z"
           style="fill:#d40000;fill-opacity:1;stroke:none" />
        <path
           sodipodi:nodetypes="sssssss"
           inkscape:connector-curvature="0"
           id="path4032"
           d="m 339.5,462.36218 c 9.972,0 28.11525,11.0271 25,20.5 l -24.5,74.5 c -3.11525,9.47291 12.472,50.5 7.5,65.5 -3.13752,9.46556 -29.23938,-54.03141 -29.5,-64 l -2,-76.5 c -0.26062,-9.96859 13.528,-20 23.5,-20 z"
           style="fill:#800000;fill-opacity:1;stroke:#000000;stroke-width:4;stroke-miterlimit:4;stroke-opacity:1" />
        <path
           sodipodi:nodetypes="cccccccc"
           inkscape:connector-curvature="0"
           id="path4034"
           d="m 339.29986,466.24419 c -4.93467,0.93508 -10.91022,10.34514 -10.36038,22.56109 -0.87109,24.69082 -2.23389,49.65327 -2.82362,74.18671 1.59712,20.12126 11.23703,25.59338 16.30465,49.47786 1.30404,4.21831 -8.77332,-31.74539 -9.41336,-52.13707 6.71279,-24.8879 20.60143,-53.9563 25.41021,-79.93315 -0.21003,-8.33443 -9.49039,-8.12366 -12.56443,-10.94945 -0.8987,-0.67237 -5.56621,-3.31138 -6.55307,-3.20599 z"
           style="fill:#d40000;fill-opacity:1;stroke:none" />
      </g>
      <g
         transform="matrix(-0.98199738,0.18889455,0.18889455,0.98199738,606.18056,-98.797001)"
         id="g4036">
        <path
           transform="matrix(0.7838346,0.62096966,-0.63109911,0.7757022,0,0)"
           style="fill:#800000;fill-opacity:1;stroke:#000000;stroke-width:2.62280512;stroke-miterlimit:4;stroke-opacity:1"
           d="m 622.57653,178.38039 c -6.23025,6.7544 -39.72759,7.14788 -52.76493,7.14788 -10.51624,0 -18.98238,-8.46614 -18.98238,-18.98238 0,-10.51623 8.47243,-19.50731 18.98238,-18.98237 l 51.98235,2.59635"
           id="path4038"
           inkscape:connector-curvature="0"
           sodipodi:nodetypes="csssc" />
        <path
           style="fill:#d40000;fill-opacity:1;stroke:none"
           d="m 355.92204,473.71653 c -8.50067,-6.95445 -23.38376,-1.92834 -23.77013,7.71897 -1.08475,9.24051 13.68355,5.69563 20.01322,11.66481 7.28281,4.7864 18.17945,15.2605 27.56505,16.66077 11.07164,1.70492 8.50159,4.18212 11.10047,-5.42266 -6.18054,-7.40726 -21.22335,-18.81669 -28.50013,-25.43483 -2.14436,-1.7209 -4.23388,-3.49545 -6.40848,-5.18706 z"
           id="path4040"
           inkscape:connector-curvature="0"
           sodipodi:nodetypes="ccccccc" />
        <path
           style="fill:#800000;fill-opacity:1;stroke:#000000;stroke-width:4;stroke-miterlimit:4;stroke-opacity:1"
           d="m 339.5,462.36218 c 9.972,0 28.11525,11.0271 25,20.5 l -24.5,74.5 c -3.11525,9.47291 12.472,50.5 7.5,65.5 -3.13752,9.46556 -29.23938,-54.03141 -29.5,-64 l -2,-76.5 c -0.26062,-9.96859 13.528,-20 23.5,-20 z"
           id="path4042"
           inkscape:connector-curvature="0"
           sodipodi:nodetypes="sssssss" />
        <path
           style="fill:#d40000;fill-opacity:1;stroke:none"
           d="m 339.29986,466.24419 c -4.93467,0.93508 -10.91022,10.34514 -10.36038,22.56109 -0.87109,24.69082 -2.23389,49.65327 -2.82362,74.18671 1.59712,20.12126 11.23703,25.59338 16.30465,49.47786 1.30404,4.21831 -8.77332,-31.74539 -9.41336,-52.13707 6.71279,-24.8879 20.60143,-53.9563 25.41021,-79.93315 -0.21003,-8.33443 -9.49039,-8.12366 -12.56443,-10.94945 -0.8987,-0.67237 -5.56621,-3.31138 -6.55307,-3.20599 z"
           id="path4044"
           inkscape:connector-curvature="0"
           sodipodi:nodetypes="cccccccc" />
      </g>
      <g
         transform="matrix(-0.8922044,0.45163183,0.45163183,0.8922044,516.9186,-133.13777)"
         id="g3960">
        <path
           transform="matrix(0.7838346,0.62096966,-0.63109911,0.7757022,0,0)"
           style="fill:#800000;fill-opacity:1;stroke:#000000;stroke-width:2.62280512;stroke-miterlimit:4;stroke-opacity:1"
           d="m 622.57653,178.38039 c -6.23025,6.7544 -39.72759,7.14788 -52.76493,7.14788 -10.51624,0 -18.98238,-8.46614 -18.98238,-18.98238 0,-10.51623 8.47243,-19.50731 18.98238,-18.98237 l 51.98235,2.59635"
           id="rect3943"
           inkscape:connector-curvature="0"
           sodipodi:nodetypes="csssc" />
        <path
           style="fill:#d40000;fill-opacity:1;stroke:none"
           d="m 355.92204,473.71653 c -8.50067,-6.95445 -23.38376,-1.92834 -23.77013,7.71897 -1.08475,9.24051 13.68355,5.69563 20.01322,11.66481 7.28281,4.7864 18.17945,15.2605 27.56505,16.66077 11.07164,1.70492 8.50159,4.18212 11.10047,-5.42266 -6.18054,-7.40726 -21.22335,-18.81669 -28.50013,-25.43483 -2.14436,-1.7209 -4.23388,-3.49545 -6.40848,-5.18706 z"
           id="rect3945"
           inkscape:connector-curvature="0"
           sodipodi:nodetypes="ccccccc" />
        <path
           style="fill:#800000;fill-opacity:1;stroke:#000000;stroke-width:4;stroke-miterlimit:4;stroke-opacity:1"
           d="m 339.5,462.36218 c 9.972,0 28.11525,11.0271 25,20.5 l -24.5,74.5 c -3.11525,9.47291 12.472,50.5 7.5,65.5 -3.13752,9.46556 -29.23938,-54.03141 -29.5,-64 l -2,-76.5 c -0.26062,-9.96859 13.528,-20 23.5,-20 z"
           id="rect3952"
           inkscape:connector-curvature="0"
           sodipodi:nodetypes="sssssss" />
        <path
           style="fill:#d40000;fill-opacity:1;stroke:none"
           d="m 339.29986,466.24419 c -4.93467,0.93508 -10.91022,10.34514 -10.36038,22.56109 -0.87109,24.69082 -2.23389,49.65327 -2.82362,74.18671 1.59712,20.12126 11.23703,25.59338 16.30465,49.47786 1.30404,4.21831 -8.77332,-31.74539 -9.41336,-52.13707 6.71279,-24.8879 20.60143,-53.9563 25.41021,-79.93315 -0.21003,-8.33443 -9.49039,-8.12366 -12.56443,-10.94945 -0.8987,-0.67237 -5.56621,-3.31138 -6.55307,-3.20599 z"
           id="path3956"
           inkscape:connector-curvature="0"
           sodipodi:nodetypes="cccccccc" />
      </g>
      <path
         sodipodi:nodetypes="sssss"
         inkscape:connector-curvature="0"
         id="path2985"
         d="m 600.00002,453.79074 c 0,103.35614 -94.31898,78.57142 -207.14287,78.57142 -112.82388,0 -201.42858,24.78472 -201.42858,-78.57142 0,-103.35614 91.46184,-187.14285 204.28572,-187.14285 112.82389,0 204.28573,83.78671 204.28573,187.14285 z"
         style="fill:#800000;fill-rule:evenodd;stroke:#000000;stroke-width:8;stroke-linecap:butt;stroke-linejoin:miter;stroke-opacity:1;stroke-miterlimit:4;stroke-dasharray:none" />
      <path
         sodipodi:nodetypes="assaaaaasaa"
         inkscape:connector-curvature="0"
         id="path3762"
         d="m 319.68487,283.2281 c -26.38004,10.99002 -53.44484,28.5013 -71.5066,47.29684 -15.59348,16.22699 -4.42845,51.98611 12.97343,66.25659 21.78848,17.86773 49.83483,27.59875 76.98776,35.3568 39.04926,11.15704 80.87347,22.37215 120.86849,15.32072 26.2703,-4.63166 48.36267,-22.76032 71.16285,-36.60708 10.37825,-6.3028 25.29468,-9.75323 29.72198,-21.05953 6.34462,-16.20267 -1.06423,-36.63873 -10.77495,-51.07766 -19.06457,-28.34724 -51.6847,-49.40917 -84.89655,-57.40896 -27.23843,-6.56097 -54.11033,-12.12888 -81.52315,-11.18634 -21.44143,0.73722 -43.20903,4.8581 -63.01326,13.10862 z"
         style="fill:#d40000;fill-rule:evenodd;stroke:none" />
      <path
         style="fill:#800000;fill-rule:evenodd;stroke:#000000;stroke-width:7.50748158;stroke-linecap:butt;stroke-linejoin:miter;stroke-miterlimit:4;stroke-opacity:1;stroke-dasharray:none"
         d="m 676.98883,492.78901 c 0,66.49729 -53.47114,50.5513 -117.43305,50.5513 -63.9619,0 -114.19351,15.94599 -114.19351,-50.5513 0,-66.49731 51.85137,-120.40403 115.81327,-120.40403 63.96191,0 115.81329,53.90672 115.81329,120.40403 z"
         id="path2992"
         inkscape:connector-curvature="0"
         sodipodi:nodetypes="sssss" />
      <path
         sodipodi:nodetypes="ccccccccccc"
         inkscape:connector-curvature="0"
         id="path3766"
         d="m 553.20855,376.27097 c -29.01164,5.15581 -42.9071,17.83403 -58.03169,36.56409 -21.22723,26.3043 -28.69015,58.571 -23.37072,89.16446 1.93771,10.704 13.1437,21.15067 23.48325,25.96943 18.65838,7.65543 44.76918,14.04785 66.80074,12.25815 24.34217,1.14239 57.63251,2.51002 82.08081,-1.12777 13.8986,-1.92027 21.80551,-12.81028 24.69388,-23.21895 5.76146,-19.34056 0.66532,-49.52757 -5.24645,-68.60651 -8.70223,-26.17151 -30.46439,-52.6105 -63.00912,-64.92349 -10.46911,-3.81794 -25.47782,-7.05884 -37.06481,-6.68951 z"
         style="fill:#d40000;fill-rule:evenodd;stroke:none" />
      <g
         transform="matrix(1.0763429,0.14283425,-0.19400368,0.79245216,48.339801,10.796924)"
         id="g3784">
        <path
           sodipodi:type="arc"
           style="fill:#441650;stroke:#000000;stroke-width:2;stroke-miterlimit:4;stroke-opacity:1;stroke-dasharray:none"
           id="path3770"
           sodipodi:cx="541.42859"
           sodipodi:cy="420.93362"
           sodipodi:rx="15.714286"
           sodipodi:ry="14.285714"
           d="m 557.14287,420.93362 c 0,7.88979 -7.03552,14.28572 -15.71428,14.28572 -8.67876,0 -15.71429,-6.39593 -15.71429,-14.28572 0,-7.88978 7.03553,-14.28571 15.71429,-14.28571 8.67876,0 15.71428,6.39593 15.71428,14.28571 z" />
        <path
           style="fill:#672178;stroke:none"
           d="m 540.89512,408.71063 c -8.54004,1.3e-4 -15.3689,10.53567 -9.47767,17.46498 6.21367,8.80999 23.15494,5.30537 23.70893,-5.73562 0.50907,-7.23551 -7.27844,-12.58812 -14.23126,-11.72936 z"
           id="path3772"
           inkscape:connector-curvature="0" />
        <path
           sodipodi:type="arc"
           style="fill:#eed7f4;stroke:none"
           id="path3776"
           sodipodi:cx="548.26031"
           sodipodi:cy="417.73386"
           sodipodi:rx="3.7880721"
           sodipodi:ry="3.2829957"
           d="m 552.04839,417.73386 c 0,1.81314 -1.69598,3.28299 -3.78808,3.28299 -2.09209,0 -3.78807,-1.46985 -3.78807,-3.28299 0,-1.81315 1.69598,-3.283 3.78807,-3.283 2.0921,0 3.78808,1.46985 3.78808,3.283 z" />
        <path
           d="m 552.04839,417.73386 c 0,1.81314 -1.69598,3.28299 -3.78808,3.28299 -2.09209,0 -3.78807,-1.46985 -3.78807,-3.28299 0,-1.81315 1.69598,-3.283 3.78807,-3.283 2.0921,0 3.78808,1.46985 3.78808,3.283 z"
           sodipodi:ry="3.2829957"
           sodipodi:rx="3.7880721"
           sodipodi:cy="417.73386"
           sodipodi:cx="548.26031"
           id="path3782"
           style="fill:#eed7f4;stroke:none"
           sodipodi:type="arc"
           transform="matrix(0.55216571,0,0,0.42887528,233.49196,251.23305)" />
      </g>
      <g
         id="g3790"
         transform="matrix(1.3983259,0.18556245,-0.24839723,1.014635,-102.41364,-73.405314)">
        <path
           d="m 557.14287,420.93362 c 0,7.88979 -7.03552,14.28572 -15.71428,14.28572 -8.67876,0 -15.71429,-6.39593 -15.71429,-14.28572 0,-7.88978 7.03553,-14.28571 15.71429,-14.28571 8.67876,0 15.71428,6.39593 15.71428,14.28571 z"
           sodipodi:ry="14.285714"
           sodipodi:rx="15.714286"
           sodipodi:cy="420.93362"
           sodipodi:cx="541.42859"
           id="path3792"
           style="fill:#441650;stroke:#000000;stroke-width:2;stroke-miterlimit:4;stroke-opacity:1;stroke-dasharray:none"
           sodipodi:type="arc" />
        <path
           inkscape:connector-curvature="0"
           id="path3794"
           d="m 540.89512,408.71063 c -8.54004,1.3e-4 -15.3689,10.53567 -9.47767,17.46498 6.21367,8.80999 23.15494,5.30537 23.70893,-5.73562 0.50907,-7.23551 -7.27844,-12.58812 -14.23126,-11.72936 z"
           style="fill:#672178;stroke:none" />
        <path
           d="m 552.04839,417.73386 c 0,1.81314 -1.69598,3.28299 -3.78808,3.28299 -2.09209,0 -3.78807,-1.46985 -3.78807,-3.28299 0,-1.81315 1.69598,-3.283 3.78807,-3.283 2.0921,0 3.78808,1.46985 3.78808,3.283 z"
           sodipodi:ry="3.2829957"
           sodipodi:rx="3.7880721"
           sodipodi:cy="417.73386"
           sodipodi:cx="548.26031"
           id="path3796"
           style="fill:#eed7f4;stroke:none"
           sodipodi:type="arc" />
        <path
           transform="matrix(0.55216571,0,0,0.42887528,233.49196,251.23305)"
           sodipodi:type="arc"
           style="fill:#eed7f4;stroke:none"
           id="path3798"
           sodipodi:cx="548.26031"
           sodipodi:cy="417.73386"
           sodipodi:rx="3.7880721"
           sodipodi:ry="3.2829957"
           d="m 552.04839,417.73386 c 0,1.81314 -1.69598,3.28299 -3.78808,3.28299 -2.09209,0 -3.78807,-1.46985 -3.78807,-3.28299 0,-1.81315 1.69598,-3.283 3.78807,-3.283 2.0921,0 3.78808,1.46985 3.78808,3.283 z" />
      </g>
      <g
         transform="matrix(1.8583014,0.24660273,-0.3027908,1.2368179,-331.99936,-162.44428)"
         id="g3800">
        <path
           sodipodi:type="arc"
           style="fill:#441650;stroke:#000000;stroke-width:2;stroke-miterlimit:4;stroke-opacity:1;stroke-dasharray:none"
           id="path3802"
           sodipodi:cx="541.42859"
           sodipodi:cy="420.93362"
           sodipodi:rx="15.714286"
           sodipodi:ry="14.285714"
           d="m 557.14287,420.93362 c 0,7.88979 -7.03552,14.28572 -15.71428,14.28572 -8.67876,0 -15.71429,-6.39593 -15.71429,-14.28572 0,-7.88978 7.03553,-14.28571 15.71429,-14.28571 8.67876,0 15.71428,6.39593 15.71428,14.28571 z" />
        <path
           style="fill:#672178;stroke:none"
           d="m 540.89512,408.71063 c -8.54004,1.3e-4 -15.3689,10.53567 -9.47767,17.46498 6.21367,8.80999 23.15494,5.30537 23.70893,-5.73562 0.50907,-7.23551 -7.27844,-12.58812 -14.23126,-11.72936 z"
           id="path3804"
           inkscape:connector-curvature="0" />
        <path
           sodipodi:type="arc"
           style="fill:#eed7f4;stroke:none"
           id="path3806"
           sodipodi:cx="548.26031"
           sodipodi:cy="417.73386"
           sodipodi:rx="3.7880721"
           sodipodi:ry="3.2829957"
           d="m 552.04839,417.73386 c 0,1.81314 -1.69598,3.28299 -3.78808,3.28299 -2.09209,0 -3.78807,-1.46985 -3.78807,-3.28299 0,-1.81315 1.69598,-3.283 3.78807,-3.283 2.0921,0 3.78808,1.46985 3.78808,3.283 z" />
        <path
           d="m 552.04839,417.73386 c 0,1.81314 -1.69598,3.28299 -3.78808,3.28299 -2.09209,0 -3.78807,-1.46985 -3.78807,-3.28299 0,-1.81315 1.69598,-3.283 3.78807,-3.283 2.0921,0 3.78808,1.46985 3.78808,3.283 z"
           sodipodi:ry="3.2829957"
           sodipodi:rx="3.7880721"
           sodipodi:cy="417.73386"
           sodipodi:cx="548.26031"
           id="path3808"
           style="fill:#eed7f4;stroke:none"
           sodipodi:type="arc"
           transform="matrix(0.55216571,0,0,0.42887528,233.49196,251.23305)" />
      </g>
      <g
         id="g3046"
         transform="matrix(1.088882,-0.07539797,0.10240879,0.80168397,-24.206294,126.11174)">
        <path
           d="m 557.14287,420.93362 c 0,7.88979 -7.03552,14.28572 -15.71428,14.28572 -8.67876,0 -15.71429,-6.39593 -15.71429,-14.28572 0,-7.88978 7.03553,-14.28571 15.71429,-14.28571 8.67876,0 15.71428,6.39593 15.71428,14.28571 z"
           sodipodi:ry="14.285714"
           sodipodi:rx="15.714286"
           sodipodi:cy="420.93362"
           sodipodi:cx="541.42859"
           id="path3048"
           style="fill:#441650;stroke:#000000;stroke-width:2;stroke-miterlimit:4;stroke-opacity:1;stroke-dasharray:none"
           sodipodi:type="arc" />
        <path
           inkscape:connector-curvature="0"
           id="path3050"
           d="m 540.89512,408.71063 c -8.54004,1.3e-4 -15.3689,10.53567 -9.47767,17.46498 6.21367,8.80999 23.15494,5.30537 23.70893,-5.73562 0.50907,-7.23551 -7.27844,-12.58812 -14.23126,-11.72936 z"
           style="fill:#672178;stroke:none" />
        <path
           d="m 552.04839,417.73386 c 0,1.81314 -1.69598,3.28299 -3.78808,3.28299 -2.09209,0 -3.78807,-1.46985 -3.78807,-3.28299 0,-1.81315 1.69598,-3.283 3.78807,-3.283 2.0921,0 3.78808,1.46985 3.78808,3.283 z"
           sodipodi:ry="3.2829957"
           sodipodi:rx="3.7880721"
           sodipodi:cy="417.73386"
           sodipodi:cx="548.26031"
           id="path3052"
           style="fill:#eed7f4;stroke:none"
           sodipodi:type="arc" />
        <path
           transform="matrix(0.55216571,0,0,0.42887528,233.49196,251.23305)"
           sodipodi:type="arc"
           style="fill:#eed7f4;stroke:none"
           id="path3054"
           sodipodi:cx="548.26031"
           sodipodi:cy="417.73386"
           sodipodi:rx="3.7880721"
           sodipodi:ry="3.2829957"
           d="m 552.04839,417.73386 c 0,1.81314 -1.69598,3.28299 -3.78808,3.28299 -2.09209,0 -3.78807,-1.46985 -3.78807,-3.28299 0,-1.81315 1.69598,-3.283 3.78807,-3.283 2.0921,0 3.78808,1.46985 3.78808,3.283 z" />
      </g>
      <g
         transform="matrix(1.4146159,-0.09795291,0.13112153,1.0264551,-205.18294,75.524105)"
         id="g3056">
        <path
           sodipodi:type="arc"
           style="fill:#441650;stroke:#000000;stroke-width:2;stroke-miterlimit:4;stroke-opacity:1;stroke-dasharray:none"
           id="path3058"
           sodipodi:cx="541.42859"
           sodipodi:cy="420.93362"
           sodipodi:rx="15.714286"
           sodipodi:ry="14.285714"
           d="m 557.14287,420.93362 c 0,7.88979 -7.03552,14.28572 -15.71428,14.28572 -8.67876,0 -15.71429,-6.39593 -15.71429,-14.28572 0,-7.88978 7.03553,-14.28571 15.71429,-14.28571 8.67876,0 15.71428,6.39593 15.71428,14.28571 z" />
        <path
           style="fill:#672178;stroke:none"
           d="m 540.89512,408.71063 c -8.54004,1.3e-4 -15.3689,10.53567 -9.47767,17.46498 6.21367,8.80999 23.15494,5.30537 23.70893,-5.73562 0.50907,-7.23551 -7.27844,-12.58812 -14.23126,-11.72936 z"
           id="path3060"
           inkscape:connector-curvature="0" />
        <path
           sodipodi:type="arc"
           style="fill:#eed7f4;stroke:none"
           id="path3062"
           sodipodi:cx="548.26031"
           sodipodi:cy="417.73386"
           sodipodi:rx="3.7880721"
           sodipodi:ry="3.2829957"
           d="m 552.04839,417.73386 c 0,1.81314 -1.69598,3.28299 -3.78808,3.28299 -2.09209,0 -3.78807,-1.46985 -3.78807,-3.28299 0,-1.81315 1.69598,-3.283 3.78807,-3.283 2.0921,0 3.78808,1.46985 3.78808,3.283 z" />
        <path
           d="m 552.04839,417.73386 c 0,1.81314 -1.69598,3.28299 -3.78808,3.28299 -2.09209,0 -3.78807,-1.46985 -3.78807,-3.28299 0,-1.81315 1.69598,-3.283 3.78807,-3.283 2.0921,0 3.78808,1.46985 3.78808,3.283 z"
           sodipodi:ry="3.2829957"
           sodipodi:rx="3.7880721"
           sodipodi:cy="417.73386"
           sodipodi:cx="548.26031"
           id="path3064"
           style="fill:#eed7f4;stroke:none"
           sodipodi:type="arc"
           transform="matrix(0.55216571,0,0,0.42887528,233.49196,251.23305)" />
      </g>
      <g
         id="g3066"
         transform="matrix(1.87995,-0.13017426,0.15983429,1.2512264,-460.43435,35.195809)">
        <path
           d="m 557.14287,420.93362 c 0,7.88979 -7.03552,14.28572 -15.71428,14.28572 -8.67876,0 -15.71429,-6.39593 -15.71429,-14.28572 0,-7.88978 7.03553,-14.28571 15.71429,-14.28571 8.67876,0 15.71428,6.39593 15.71428,14.28571 z"
           sodipodi:ry="14.285714"
           sodipodi:rx="15.714286"
           sodipodi:cy="420.93362"
           sodipodi:cx="541.42859"
           id="path3068"
           style="fill:#441650;stroke:#000000;stroke-width:2;stroke-miterlimit:4;stroke-opacity:1;stroke-dasharray:none"
           sodipodi:type="arc" />
        <path
           inkscape:connector-curvature="0"
           id="path3070"
           d="m 540.89512,408.71063 c -8.54004,1.3e-4 -15.3689,10.53567 -9.47767,17.46498 6.21367,8.80999 23.15494,5.30537 23.70893,-5.73562 0.50907,-7.23551 -7.27844,-12.58812 -14.23126,-11.72936 z"
           style="fill:#672178;stroke:none" />
        <path
           d="m 552.04839,417.73386 c 0,1.81314 -1.69598,3.28299 -3.78808,3.28299 -2.09209,0 -3.78807,-1.46985 -3.78807,-3.28299 0,-1.81315 1.69598,-3.283 3.78807,-3.283 2.0921,0 3.78808,1.46985 3.78808,3.283 z"
           sodipodi:ry="3.2829957"
           sodipodi:rx="3.7880721"
           sodipodi:cy="417.73386"
           sodipodi:cx="548.26031"
           id="path3072"
           style="fill:#eed7f4;stroke:none"
           sodipodi:type="arc" />
        <path
           transform="matrix(0.55216571,0,0,0.42887528,233.49196,251.23305)"
           sodipodi:type="arc"
           style="fill:#eed7f4;stroke:none"
           id="path3074"
           sodipodi:cx="548.26031"
           sodipodi:cy="417.73386"
           sodipodi:rx="3.7880721"
           sodipodi:ry="3.2829957"
           d="m 552.04839,417.73386 c 0,1.81314 -1.69598,3.28299 -3.78808,3.28299 -2.09209,0 -3.78807,-1.46985 -3.78807,-3.28299 0,-1.81315 1.69598,-3.283 3.78807,-3.283 2.0921,0 3.78808,1.46985 3.78808,3.283 z" />
      </g>
      <g
         id="g3923">
        <path
           sodipodi:nodetypes="csssssc"
           inkscape:connector-curvature="0"
           id="path3913"
           d="m 553.12228,520.26654 c 11.63528,-4.24986 15.83094,-0.54254 23.31831,11.21994 7.13231,11.20467 -23.36423,20.02126 -25.54273,33.56334 -2.17852,13.5421 3.04808,-15.28164 3.48684,-0.96781 0.44399,14.48445 6.11545,14.08649 -2.74128,4.76142 -8.85672,-9.32506 -30.63513,-5.43915 -38.45923,-16.18438 -11.86252,-16.29142 -5.66721,-20.09564 6.70407,-24.61433"
           inkscape:transform-center-y="5.8565864"
           inkscape:transform-center-x="5.9926467"
           style="fill:#800000;fill-opacity:1;stroke:#000000;stroke-width:3.55781627000000000;stroke-miterlimit:4;stroke-opacity:1" />
        <path
           style="fill:#d40000;fill-opacity:1;stroke:none"
           d="m 554.43699,520.09346 c -12.81155,3.53799 -18.04544,2.39457 -30.77993,6.67842 -9.23023,1.57025 -11.12385,10.46087 -8.56279,15.92457 2.54376,7.59162 8.13863,14.36843 15.98424,15.49386 6.63572,1.53017 14.42968,3.11976 20.21617,5.84094 3.42209,-12.877 18.1522,-16.27461 23.99063,-27.29871 0.55633,-5.17456 -4.32418,-9.15071 -7.0628,-12.88081 -1.86482,-3.98784 -9.68213,-5.53548 -13.78552,-3.75827 z"
           id="path3919"
           inkscape:connector-curvature="0"
           sodipodi:nodetypes="cccccccc" />
        <path
           style="fill:#e9afaf;fill-opacity:1;stroke:#000000;stroke-width:2.77680062999999990;stroke-miterlimit:4;stroke-opacity:1"
           inkscape:transform-center-x="4.8516704"
           inkscape:transform-center-y="4.4065078"
           d="m 572.88215,585.76931 c 5.89492,9.17323 -22.82616,-8.37553 -29.9966,-15.39172 -7.17043,-7.01619 -25.723,-9.20938 -25.75394,-19.63435 -0.0345,-11.63626 13.85912,-18.84419 23.87495,-22.24406 9.41997,-3.1976 23.66824,-5.64348 29.73004,3.20662 5.77434,8.43042 0.008,19.67108 -1.75565,29.86017 -1.76373,10.1891 -2.11087,14.8478 3.9012,24.20334 z"
           id="path3142"
           inkscape:connector-curvature="0"
           sodipodi:nodetypes="sssssss" />
        <path
           style="fill:#f4d7d7;fill-opacity:1;stroke:none"
           d="m 560.65945,527.625 c -8.32684,1.36933 -17.37573,5.74776 -22.51427,16.3125 -2.24553,4.67742 -1.56449,11.74542 2.23077,14.0625 5.22415,4.42617 11.19653,7.18985 15.36755,13.875 4.70077,5.29043 9.65766,10.32163 15.0577,13.875 -5.38385,-11.02311 -2.36737,-25.34727 -0.26526,-37.34966 1.77825,-7.3927 0.75434,-18.1596 -5.06381,-20.08784 -1.56517,-0.6552 -3.17442,-0.80103 -4.81268,-0.6875 z"
           id="path3915"
           inkscape:connector-curvature="0" />
      </g>
      <path
         sodipodi:nodetypes="csssssc"
         inkscape:connector-curvature="0"
         id="path3931"
         d="m 637.96318,520.39673 c 12.38168,-0.36747 15.19558,4.47296 18.59558,17.99541 3.23879,12.88118 -28.48236,11.64015 -34.81662,23.80612 -6.33429,12.16599 7.70764,-13.54295 3.61417,0.18009 -4.14225,13.88661 1.36574,15.29584 -4.10184,3.65521 -5.46758,-11.64061 -27.36111,-14.81437 -31.4012,-27.47747 -6.12538,-19.1992 0.95299,-20.8577 14.11788,-21.24842"
         inkscape:transform-center-y="5.8565864"
         inkscape:transform-center-x="5.9926467"
         style="fill:#800000;fill-opacity:1;stroke:#000000;stroke-width:3.55781627;stroke-miterlimit:4;stroke-opacity:1" />
      <path
         style="fill:#d40000;fill-opacity:1;stroke:none"
         d="m 639.26546,520.64669 c -13.27375,-0.67875 -17.88081,-3.41298 -31.31642,-3.35959 -9.25486,-1.4179 -13.85321,6.42328 -13.14405,12.41562 0.0223,8.00643 3.19704,16.20086 10.28847,19.7409 5.81564,3.54295 12.7118,7.50723 17.34621,11.91298 7.30497,-11.14295 22.35533,-9.72648 31.36977,-18.34958 2.15835,-4.73573 -1.22081,-10.04708 -2.6447,-14.45005 -0.51339,-4.37229 -7.44493,-8.30411 -11.89928,-7.91028 z"
         id="path3933"
         inkscape:connector-curvature="0"
         sodipodi:nodetypes="cccccccc" />
      <path
         style="fill:#e9afaf;fill-opacity:1;stroke:#000000;stroke-width:2.77680063;stroke-miterlimit:4;stroke-opacity:1"
         inkscape:transform-center-x="-4.8516751"
         inkscape:transform-center-y="4.4065078"
         d="m 609.32415,588.78908 c -2.70446,10.56334 19.02469,-15.14081 23.61933,-24.05885 4.59462,-8.91804 21.51127,-16.8449 18.25602,-26.74866 -3.6335,-11.05447 -19.0905,-13.51781 -29.66741,-13.58882 -9.94766,-0.0668 -24.24087,2.10113 -27.20552,12.41038 -2.82406,9.82037 6.1902,18.67171 11.07431,27.78618 4.88419,9.11445 6.68147,13.4265 3.92327,24.19977 z"
         id="path3935"
         inkscape:connector-curvature="0"
         sodipodi:nodetypes="sssssss" />
      <path
         sodipodi:nodetypes="ccccscccc"
         style="fill:#f4d7d7;fill-opacity:1;stroke:none"
         d="m 621.60473,525.75515 c 8.33418,-1.32395 18.3017,-0.0196 26.50717,8.38808 3.60488,3.73169 1.47314,10.13436 -1.39877,13.5292 -3.56352,5.84672 -5.88088,5.16938 -10.91514,10.35333 -3.07663,4.31169 -7.03729,10.88881 -12.32047,17.55255 -5.28318,6.66375 -11.18177,11.9999 -13.18449,14.5368 1.63657,-12.15798 14.2606,-30.80218 8.48395,-41.53095 -4.01691,-6.4559 -6.43749,-16.99702 -1.5232,-20.66019 1.27902,-1.11496 2.76036,-1.7604 4.35095,-2.16882 z"
         id="path3937"
         inkscape:connector-curvature="0" />
      <g
         id="g4016"
         transform="translate(21.92031,0)">
        <path
           sodipodi:nodetypes="csssc"
           inkscape:connector-curvature="0"
           id="path4018"
           d="m 614.97441,177.5003 c -6.23025,6.7544 -32.12547,8.02797 -45.16281,8.02797 -10.51624,0 -18.98238,-8.46614 -18.98238,-18.98238 0,-10.51623 8.47243,-19.50731 18.98238,-18.98237 l 51.98235,2.59635"
           style="fill:#800000;fill-opacity:1;stroke:#000000;stroke-width:2.62280512;stroke-miterlimit:4;stroke-opacity:1"
           transform="matrix(0.7838346,0.62096966,-0.63109911,0.7757022,0,0)" />
        <path
           sodipodi:nodetypes="ccccccc"
           inkscape:connector-curvature="0"
           id="path4020"
           d="m 355.92204,473.71653 c -8.50067,-6.95445 -23.38376,-1.92834 -23.77013,7.71897 -1.08475,9.24051 13.68355,5.69563 20.01322,11.66481 7.28281,4.7864 18.17945,15.2605 27.56505,16.66077 11.07164,1.70492 8.50159,4.18212 11.10047,-5.42266 -6.18054,-7.40726 -21.22335,-18.81669 -28.50013,-25.43483 -2.14436,-1.7209 -4.23388,-3.49545 -6.40848,-5.18706 z"
           style="fill:#d40000;fill-opacity:1;stroke:none" />
        <path
           sodipodi:nodetypes="sssssss"
           inkscape:connector-curvature="0"
           id="path4022"
           d="m 339.5,462.36218 c 9.972,0 28.11525,11.0271 25,20.5 l -24.5,74.5 c -3.11525,9.47291 12.472,50.5 7.5,65.5 -3.13752,9.46556 -29.23938,-54.03141 -29.5,-64 l -2,-76.5 c -0.26062,-9.96859 13.528,-20 23.5,-20 z"
           style="fill:#800000;fill-opacity:1;stroke:#000000;stroke-width:4;stroke-miterlimit:4;stroke-opacity:1" />
        <path
           sodipodi:nodetypes="cccccccc"
           inkscape:connector-curvature="0"
           id="path4024"
           d="m 339.29986,466.24419 c -4.93467,0.93508 -10.91022,10.34514 -10.36038,22.56109 -0.87109,24.69082 -2.23389,49.65327 -2.82362,74.18671 1.59712,20.12126 11.23703,25.59338 16.30465,49.47786 1.30404,4.21831 -8.77332,-31.74539 -9.41336,-52.13707 6.71279,-24.8879 20.60143,-53.9563 25.41021,-79.93315 -0.21003,-8.33443 -9.49039,-8.12366 -12.56443,-10.94945 -0.8987,-0.67237 -5.56621,-3.31138 -6.55307,-3.20599 z"
           style="fill:#d40000;fill-opacity:1;stroke:none" />
      </g>
      <g
         id="g3966"
         transform="matrix(0.99101077,0.13378214,-0.13378214,0.99101077,9.3697682,-52.371415)">
        <path
           sodipodi:nodetypes="csssc"
           inkscape:connector-curvature="0"
           id="path3968"
           d="m 608.82755,178.63851 c -6.23025,6.7544 -25.97861,6.88976 -39.01595,6.88976 -10.51624,0 -18.98238,-8.46614 -18.98238,-18.98238 0,-10.51623 8.47243,-19.50731 18.98238,-18.98237 l 51.98235,2.59635"
           style="fill:#800000;fill-opacity:1;stroke:#000000;stroke-width:2.62280512;stroke-miterlimit:4;stroke-opacity:1"
           transform="matrix(0.7838346,0.62096966,-0.63109911,0.7757022,0,0)" />
        <path
           sodipodi:nodetypes="ccccccc"
           inkscape:connector-curvature="0"
           id="path3970"
           d="m 355.92204,473.71653 c -8.50067,-6.95445 -23.38376,-1.92834 -23.77013,7.71897 -1.08475,9.24051 13.68355,5.69563 20.01322,11.66481 7.28281,4.7864 18.17945,15.2605 27.56505,16.66077 11.07164,1.70492 8.50159,4.18212 11.10047,-5.42266 -6.18054,-7.40726 -21.22335,-18.81669 -28.50013,-25.43483 -2.14436,-1.7209 -4.23388,-3.49545 -6.40848,-5.18706 z"
           style="fill:#d40000;fill-opacity:1;stroke:none" />
        <path
           sodipodi:nodetypes="sssssss"
           inkscape:connector-curvature="0"
           id="path3972"
           d="m 339.5,462.36218 c 9.972,0 28.11525,11.0271 25,20.5 l -24.5,74.5 c -3.11525,9.47291 12.472,50.5 7.5,65.5 -3.13752,9.46556 -29.23938,-54.03141 -29.5,-64 l -2,-76.5 c -0.26062,-9.96859 13.528,-20 23.5,-20 z"
           style="fill:#800000;fill-opacity:1;stroke:#000000;stroke-width:4;stroke-miterlimit:4;stroke-opacity:1" />
        <path
           sodipodi:nodetypes="cccccccc"
           inkscape:connector-curvature="0"
           id="path3974"
           d="m 336.82283,467.0622 c -6.27306,0.65535 -13.54249,9.09655 -12.35707,20.40579 -0.13896,22.77446 -0.89596,45.77907 -0.68138,68.41999 2.83674,18.65705 10.82589,25.35584 18.24894,47.63629 1.83404,3.9523 -7.91841,-30.93539 -9.54199,-49.80181 7.60101,-22.70965 17.06306,-47.25755 22.18641,-71.0537 -0.59764,-7.70885 -5.3065,-9.62711 -9.34888,-12.36769 -1.1757,-0.65915 -7.24829,-3.29453 -8.50603,-3.23887 z"
           style="fill:#d40000;fill-opacity:1;stroke:none" />
      </g>
      <g
         transform="matrix(0.96273563,0.27044429,-0.27044429,0.96273563,3.6077809,-95.667875)"
         id="g3976">
        <path
           transform="matrix(0.7838346,0.62096966,-0.63109911,0.7757022,0,0)"
           style="fill:#800000;fill-opacity:1;stroke:#000000;stroke-width:2.62280512;stroke-miterlimit:4;stroke-opacity:1"
           d="m 612.65696,179.1932 c -6.23025,6.7544 -29.80802,6.33507 -42.84536,6.33507 -10.51624,0 -18.98238,-8.46614 -18.98238,-18.98238 0,-10.51623 8.47243,-19.50731 18.98238,-18.98237 l 51.98235,2.59635"
           id="path3978"
           inkscape:connector-curvature="0"
           sodipodi:nodetypes="csssc" />
        <path
           style="fill:#d40000;fill-opacity:1;stroke:none"
           d="m 355.92204,473.71653 c -8.50067,-6.95445 -23.38376,-1.92834 -23.77013,7.71897 -1.08475,9.24051 13.68355,5.69563 20.01322,11.66481 7.28281,4.7864 18.17945,15.2605 27.56505,16.66077 11.07164,1.70492 8.50159,4.18212 11.10047,-5.42266 -6.18054,-7.40726 -21.22335,-18.81669 -28.50013,-25.43483 -2.14436,-1.7209 -4.23388,-3.49545 -6.40848,-5.18706 z"
           id="path3980"
           inkscape:connector-curvature="0"
           sodipodi:nodetypes="ccccccc" />
        <path
           style="fill:#800000;fill-opacity:1;stroke:#000000;stroke-width:4;stroke-miterlimit:4;stroke-opacity:1"
           d="m 339.5,462.36218 c 9.972,0 28.11525,11.0271 25,20.5 l -24.5,74.5 c -3.11525,9.47291 12.472,50.5 7.5,65.5 -3.13752,9.46556 -29.23938,-54.03141 -29.5,-64 l -2,-76.5 c -0.26062,-9.96859 13.528,-20 23.5,-20 z"
           id="path3982"
           inkscape:connector-curvature="0"
           sodipodi:nodetypes="sssssss" />
        <path
           style="fill:#d40000;fill-opacity:1;stroke:none"
           d="m 332.95282,469.08592 c -4.41327,-0.10547 -9.20092,7.50113 -7.88088,19.02422 0.86986,22.89706 1.31194,45.95035 2.42641,68.75618 2.80151,19.11725 0.74161,2.57318 6.94413,25.89521 1.46647,4.20014 1.07959,-7.83242 -0.87194,-27.01242 4.41579,-21.92205 15.1117,-43.21033 17.7272,-66.52763 -0.75084,-7.82896 -9.20682,-12.58949 -12.18521,-15.83975 -0.86039,-0.80653 -5.27162,-4.19846 -6.15971,-4.29581 z"
           id="path3984"
           inkscape:connector-curvature="0"
           sodipodi:nodetypes="cccccccc" />
      </g>
      <path
         inkscape:connector-curvature="0"
         id="path4052"
         d="m 376.84277,265.30719 -11.25479,-9.54448 -1.12548,1.59075"
         style="fill:none;stroke:#000000;stroke-width:2.6760807;stroke-linecap:butt;stroke-linejoin:miter;stroke-miterlimit:4;stroke-opacity:1;stroke-dasharray:none" />
      <path
         style="fill:none;stroke:#000000;stroke-width:1.79928231;stroke-linecap:butt;stroke-linejoin:miter;stroke-miterlimit:4;stroke-opacity:1;stroke-dasharray:none"
         d="m 307.78117,283.74559 -7.27915,-6.67128 -0.72792,1.11188"
         id="path4054"
         inkscape:connector-curvature="0" />
      <path
         inkscape:connector-curvature="0"
         id="path4056"
         d="m 202.99486,383.95928 -5.62222,-9.34866 -0.56223,1.55811"
         style="fill:none;stroke:#000000;stroke-width:1.87190211;stroke-linecap:butt;stroke-linejoin:miter;stroke-miterlimit:4;stroke-opacity:1;stroke-dasharray:none" />
      <path
         style="fill:none;stroke:#000000;stroke-width:2.25301695;stroke-linecap:butt;stroke-linejoin:miter;stroke-miterlimit:4;stroke-opacity:1;stroke-dasharray:none"
         d="m 201.94261,391.56309 -12.22446,-2.07233 0.35708,1.7215"
         id="path4058"
         inkscape:connector-curvature="0" />
      <path
         style="fill:none;stroke:#000000;stroke-width:1.2561202;stroke-linecap:butt;stroke-linejoin:miter;stroke-miterlimit:4;stroke-opacity:1;stroke-dasharray:none"
         d="m 257.87817,465.82447 -3.8502,-6.14709 -0.38502,1.02451"
         id="path4062"
         inkscape:connector-curvature="0" />
      <path
         inkscape:connector-curvature="0"
         id="path4064"
         d="m 257.15757,470.82426 -8.37153,-1.36263 0.24453,1.13195"
         style="fill:none;stroke:#000000;stroke-width:1.51186323;stroke-linecap:butt;stroke-linejoin:miter;stroke-miterlimit:4;stroke-opacity:1;stroke-dasharray:none" />
      <path
         inkscape:connector-curvature="0"
         id="path4066"
         d="m 279.27445,546.4426 -3.8502,-6.14709 -0.38502,1.02451"
         style="fill:none;stroke:#000000;stroke-width:1.2561202;stroke-linecap:butt;stroke-linejoin:miter;stroke-miterlimit:4;stroke-opacity:1;stroke-dasharray:none" />
      <path
         style="fill:none;stroke:#000000;stroke-width:1.51186323;stroke-linecap:butt;stroke-linejoin:miter;stroke-miterlimit:4;stroke-opacity:1;stroke-dasharray:none"
         d="m 278.55385,551.44239 -8.37153,-1.36263 0.24453,1.13195"
         id="path4068"
         inkscape:connector-curvature="0" />
      <path
         style="fill:none;stroke:#000000;stroke-width:1.2561202;stroke-linecap:butt;stroke-linejoin:miter;stroke-miterlimit:4;stroke-opacity:1;stroke-dasharray:none"
         d="m 387.40209,500.21135 -3.8502,-6.14709 -0.38502,1.02451"
         id="path4070"
         inkscape:connector-curvature="0" />
      <path
         inkscape:connector-curvature="0"
         id="path4072"
         d="m 386.68149,505.21114 -8.37153,-1.36263 0.24453,1.13195"
         style="fill:none;stroke:#000000;stroke-width:1.51186323;stroke-linecap:butt;stroke-linejoin:miter;stroke-miterlimit:4;stroke-opacity:1;stroke-dasharray:none" />
      <path
         inkscape:connector-curvature="0"
         id="path4074"
         d="m 341.935,473.08392 -3.8502,-6.14709 -0.38502,1.02451"
         style="fill:none;stroke:#000000;stroke-width:1.2561202;stroke-linecap:butt;stroke-linejoin:miter;stroke-miterlimit:4;stroke-opacity:1;stroke-dasharray:none" />
      <path
         style="fill:none;stroke:#000000;stroke-width:2.61031651;stroke-linecap:butt;stroke-linejoin:miter;stroke-miterlimit:4;stroke-opacity:1;stroke-dasharray:none"
         d="m 339.51893,547.45447 -9.18346,-3.70286 0.26825,3.076"
         id="path4076"
         inkscape:connector-curvature="0" />
      <path
         inkscape:connector-curvature="0"
         id="path4078"
         d="m 164.90999,503.51568 -4.22584,-3.70286 0.12344,3.076"
         style="fill:none;stroke:#000000;stroke-width:1.77070653;stroke-linecap:butt;stroke-linejoin:miter;stroke-miterlimit:4;stroke-opacity:1;stroke-dasharray:none" />
      <path
         style="fill:none;stroke:#000000;stroke-width:1.77070653;stroke-linecap:butt;stroke-linejoin:miter;stroke-miterlimit:4;stroke-opacity:1;stroke-dasharray:none"
         d="m 200.4431,511.53929 -4.22584,-3.70286 0.12344,3.076"
         id="path4080"
         inkscape:connector-curvature="0" />
      <path
         inkscape:connector-curvature="0"
         id="path4082"
         d="m 222.98561,479.06279 -4.22584,-3.70286 0.12344,3.076"
         style="fill:none;stroke:#000000;stroke-width:1.77070653;stroke-linecap:butt;stroke-linejoin:miter;stroke-miterlimit:4;stroke-opacity:1;stroke-dasharray:none" />
      <path
         style="fill:none;stroke:#000000;stroke-width:2.6760807;stroke-linecap:butt;stroke-linejoin:miter;stroke-miterlimit:4;stroke-opacity:1;stroke-dasharray:none"
         d="m 464.96531,276.11395 11.25479,-9.54448 1.12548,1.59075"
         id="path4086"
         inkscape:connector-curvature="0" />
      <path
         inkscape:connector-curvature="0"
         id="path4088"
         d="m 538.12815,322.90608 8.89493,-6.94863 0.88949,1.1581"
         style="fill:none;stroke:#000000;stroke-width:2.0299027;stroke-linecap:butt;stroke-linejoin:miter;stroke-miterlimit:4;stroke-opacity:1;stroke-dasharray:none" />
      <path
         inkscape:transform-center-y="6.3850261"
         inkscape:transform-center-x="16.713675"
         style="fill:none;stroke:#000000;stroke-width:1.87190211;stroke-linecap:butt;stroke-linejoin:miter;stroke-miterlimit:4;stroke-opacity:1;stroke-dasharray:none"
         d="m 497.54632,388.63466 0.48686,-10.89815 -1.3302,0.98711"
         id="path4090"
         inkscape:connector-curvature="0" />
      <path
         inkscape:transform-center-y="13.342971"
         inkscape:transform-center-x="26.464185"
         inkscape:connector-curvature="0"
         id="path4092"
         d="m 492.46397,394.38748 -9.03812,-8.4879 -0.65468,1.6317"
         style="fill:none;stroke:#000000;stroke-width:2.25301695;stroke-linecap:butt;stroke-linejoin:miter;stroke-miterlimit:4;stroke-opacity:1;stroke-dasharray:none" />
      <path
         inkscape:connector-curvature="0"
         id="path4094"
         d="m 377.4306,481.44228 11.25479,-9.54448 1.12548,1.59075"
         style="fill:none;stroke:#000000;stroke-width:2.6760807;stroke-linecap:butt;stroke-linejoin:miter;stroke-miterlimit:4;stroke-opacity:1;stroke-dasharray:none" />
      <path
         style="fill:none;stroke:#000000;stroke-width:2.00840402;stroke-linecap:butt;stroke-linejoin:miter;stroke-miterlimit:4;stroke-opacity:1;stroke-dasharray:none"
         d="m 673.53566,461.99012 6.3393,-9.54448 0.63393,1.59075"
         id="path4096"
         inkscape:connector-curvature="0" />
      <path
         inkscape:connector-curvature="0"
         id="path4098"
         d="m 294.21859,336.63177 6.3393,-9.54448 0.63393,1.59075"
         style="fill:none;stroke:#000000;stroke-width:2.00840402;stroke-linecap:butt;stroke-linejoin:miter;stroke-miterlimit:4;stroke-opacity:1;stroke-dasharray:none" />
      <path
         style="fill:none;stroke:#000000;stroke-width:2.00840402;stroke-linecap:butt;stroke-linejoin:miter;stroke-miterlimit:4;stroke-opacity:1;stroke-dasharray:none"
         d="m 511.92353,337.71244 -6.3393,-9.54448 -0.63393,1.59075"
         id="path4100"
         inkscape:connector-curvature="0" />
      <path
         style="fill:none;stroke:#000000;stroke-width:1.77070653;stroke-linecap:butt;stroke-linejoin:miter;stroke-miterlimit:4;stroke-opacity:1;stroke-dasharray:none"
         d="m 400.49723,361.9472 -4.22584,-3.70286 0.12344,3.076"
         id="path4102"
         inkscape:connector-curvature="0" />
    </g>
  </g>
</svg>
